<?xml version="1.0" encoding="UTF-8"?>
<svg id="Logo_Alt" xmlns="http://www.w3.org/2000/svg" viewBox="0 0 300 300">
  <defs>
    <style>
      .cls-1 {
        stroke: #b2a769;
        stroke-width: 20px;
      }

      .cls-1, .cls-2, .cls-3 {
        fill: none;
        stroke-linecap: round;
        stroke-miterlimit: 10;
      }

      .cls-2 {
        stroke-width: 15px;
      }

      .cls-2, .cls-3 {
        stroke: #af6246;
      }

      .cls-3 {
        stroke-width: 8px;
      }
    </style>
  </defs>
  <g>
    <path class="cls-1" d="M108.57,283.77c-52.58-19.18-84.4-54.55-95.45-106.12-1.59-7.44,4.11-14.45,11.72-14.45h77.45c3.93,0,7.6,1.95,9.79,5.2l72.67,107.59c3.2,4.73,9.19,6.67,14.57,4.77,50.51-17.8,82.44-54.98,90.06-117.57"/>
    <path class="cls-1" d="M190,16c49.95,18.83,84.72,54.06,96.41,107.2,1.67,7.6-4.15,14.8-11.93,14.8H25.61c-7.79,0-13.61-7.21-11.92-14.82C25.46,70.02,57.56,34.8,110,16M150,11v127"/>
  </g>
  <g>
    <circle class="cls-2" cx="153" cy="171" r="7.5"/>
    <line class="cls-2" x1="203.97" y1="161.48" x2="203.97" y2="255.11"/>
    <path class="cls-2" d="M203.72,160.34c-4.36,9.89-11.26,16.92-20.19,21.68"/>
    <path class="cls-2" d="M180.66,223.79c10.29-6.17,17.96-14.61,23.03-25.33"/>
    <path class="cls-2" d="M223.59,181.68c-8.93-4.76-15.84-11.79-20.19-21.68"/>
    <path class="cls-2" d="M203.72,198.2c5.06,10.72,12.74,19.16,23.03,25.33"/>
    <line class="cls-3" x1="251.66" y1="158.3" x2="251.66" y2="212.11"/>
    <path class="cls-3" d="M251.51,157.65c-2.5,5.68-6.47,9.72-11.6,12.46"/>
    <path class="cls-3" d="M238.26,194.11c5.91-3.54,10.32-8.4,13.23-14.56"/>
    <path class="cls-3" d="M262.93,169.91c-5.13-2.73-9.1-6.77-11.6-12.46"/>
    <path class="cls-3" d="M251.51,179.41c2.91,6.16,7.32,11.01,13.23,14.56"/>
  </g>
</svg>